<mxfile host="Electron" modified="2024-05-15T14:38:05.402Z" agent="Mozilla/5.0 (Windows NT 10.0; Win64; x64) AppleWebKit/537.36 (KHTML, like Gecko) draw.io/24.2.5 Chrome/120.0.6099.109 Electron/28.1.0 Safari/537.36" etag="gBFo4Bi406hioVP76Y3F" version="24.2.5" type="device" pages="3">
  <diagram name="LB_assignment" id="gsR1NxsSv03eo4spCkrD">
    <mxGraphModel dx="762" dy="1188" grid="1" gridSize="10" guides="1" tooltips="1" connect="1" arrows="1" fold="1" page="1" pageScale="1" pageWidth="827" pageHeight="1169" math="0" shadow="0">
      <root>
        <mxCell id="0" />
        <mxCell id="1" parent="0" />
        <mxCell id="GVl7jk4Q4QQUaYwLKfiG-19" style="edgeStyle=orthogonalEdgeStyle;rounded=0;orthogonalLoop=1;jettySize=auto;html=1;exitX=1;exitY=0.5;exitDx=0;exitDy=0;exitPerimeter=0;entryX=0.5;entryY=0;entryDx=0;entryDy=0;" parent="1" source="GVl7jk4Q4QQUaYwLKfiG-1" target="GVl7jk4Q4QQUaYwLKfiG-15" edge="1">
          <mxGeometry relative="1" as="geometry" />
        </mxCell>
        <mxCell id="r58312GPM-ES0Ihh1WHq-5" value="Yes" style="edgeLabel;html=1;align=center;verticalAlign=middle;resizable=0;points=[];" vertex="1" connectable="0" parent="GVl7jk4Q4QQUaYwLKfiG-19">
          <mxGeometry x="-0.2608" y="-3" relative="1" as="geometry">
            <mxPoint as="offset" />
          </mxGeometry>
        </mxCell>
        <mxCell id="GVl7jk4Q4QQUaYwLKfiG-1" value="Service net&lt;div&gt;is in the request&lt;/div&gt;" style="strokeWidth=2;html=1;shape=mxgraph.flowchart.decision;whiteSpace=wrap;" parent="1" vertex="1">
          <mxGeometry x="310" y="270" width="140" height="120" as="geometry" />
        </mxCell>
        <mxCell id="GVl7jk4Q4QQUaYwLKfiG-2" value="K8S Creation" style="rounded=1;whiteSpace=wrap;html=1;" parent="1" vertex="1">
          <mxGeometry x="320" y="160" width="120" height="60" as="geometry" />
        </mxCell>
        <mxCell id="GVl7jk4Q4QQUaYwLKfiG-3" style="edgeStyle=orthogonalEdgeStyle;rounded=0;orthogonalLoop=1;jettySize=auto;html=1;exitX=0.5;exitY=1;exitDx=0;exitDy=0;entryX=0.5;entryY=0;entryDx=0;entryDy=0;entryPerimeter=0;strokeWidth=2;strokeColor=#00CC00;" parent="1" source="GVl7jk4Q4QQUaYwLKfiG-2" target="GVl7jk4Q4QQUaYwLKfiG-1" edge="1">
          <mxGeometry relative="1" as="geometry" />
        </mxCell>
        <mxCell id="GVl7jk4Q4QQUaYwLKfiG-16" style="edgeStyle=orthogonalEdgeStyle;rounded=0;orthogonalLoop=1;jettySize=auto;html=1;exitX=0.5;exitY=1;exitDx=0;exitDy=0;entryX=0.5;entryY=0;entryDx=0;entryDy=0;" parent="1" source="GVl7jk4Q4QQUaYwLKfiG-7" target="GVl7jk4Q4QQUaYwLKfiG-14" edge="1">
          <mxGeometry relative="1" as="geometry" />
        </mxCell>
        <mxCell id="GVl7jk4Q4QQUaYwLKfiG-7" value="Create an internal network on k8s nodes witch can be accessed through VXLAN tunnel (need to call ad hoc API for VXLAN creation).&lt;div&gt;Make a list of reserved IPs on this net.&lt;/div&gt;" style="rounded=1;whiteSpace=wrap;html=1;absoluteArcSize=1;arcSize=14;strokeWidth=2;" parent="1" vertex="1">
          <mxGeometry x="50" y="480" width="140" height="130" as="geometry" />
        </mxCell>
        <mxCell id="GVl7jk4Q4QQUaYwLKfiG-12" style="edgeStyle=orthogonalEdgeStyle;rounded=0;orthogonalLoop=1;jettySize=auto;html=1;exitX=0;exitY=0.5;exitDx=0;exitDy=0;exitPerimeter=0;entryX=0.5;entryY=0;entryDx=0;entryDy=0;strokeWidth=2;strokeColor=#00CC00;" parent="1" source="GVl7jk4Q4QQUaYwLKfiG-10" target="GVl7jk4Q4QQUaYwLKfiG-7" edge="1">
          <mxGeometry relative="1" as="geometry" />
        </mxCell>
        <mxCell id="r58312GPM-ES0Ihh1WHq-3" value="Yes" style="edgeLabel;html=1;align=center;verticalAlign=middle;resizable=0;points=[];" vertex="1" connectable="0" parent="GVl7jk4Q4QQUaYwLKfiG-12">
          <mxGeometry x="-0.4067" y="-2" relative="1" as="geometry">
            <mxPoint as="offset" />
          </mxGeometry>
        </mxCell>
        <mxCell id="r58312GPM-ES0Ihh1WHq-1" style="edgeStyle=orthogonalEdgeStyle;rounded=0;orthogonalLoop=1;jettySize=auto;html=1;exitX=1;exitY=0.5;exitDx=0;exitDy=0;exitPerimeter=0;" edge="1" parent="1" source="GVl7jk4Q4QQUaYwLKfiG-10" target="GVl7jk4Q4QQUaYwLKfiG-13">
          <mxGeometry relative="1" as="geometry" />
        </mxCell>
        <mxCell id="r58312GPM-ES0Ihh1WHq-2" value="No" style="edgeLabel;html=1;align=center;verticalAlign=middle;resizable=0;points=[];" vertex="1" connectable="0" parent="r58312GPM-ES0Ihh1WHq-1">
          <mxGeometry x="-0.5951" y="2" relative="1" as="geometry">
            <mxPoint as="offset" />
          </mxGeometry>
        </mxCell>
        <mxCell id="GVl7jk4Q4QQUaYwLKfiG-10" value="Use VXLAN?" style="strokeWidth=2;html=1;shape=mxgraph.flowchart.decision;whiteSpace=wrap;" parent="1" vertex="1">
          <mxGeometry x="140" y="350" width="100" height="100" as="geometry" />
        </mxCell>
        <mxCell id="GVl7jk4Q4QQUaYwLKfiG-11" style="edgeStyle=orthogonalEdgeStyle;rounded=0;orthogonalLoop=1;jettySize=auto;html=1;exitX=0;exitY=0.5;exitDx=0;exitDy=0;exitPerimeter=0;entryX=0.5;entryY=0;entryDx=0;entryDy=0;entryPerimeter=0;strokeWidth=2;strokeColor=#00CC00;" parent="1" source="GVl7jk4Q4QQUaYwLKfiG-1" target="GVl7jk4Q4QQUaYwLKfiG-10" edge="1">
          <mxGeometry relative="1" as="geometry" />
        </mxCell>
        <mxCell id="r58312GPM-ES0Ihh1WHq-4" value="No" style="edgeLabel;html=1;align=center;verticalAlign=middle;resizable=0;points=[];" vertex="1" connectable="0" parent="GVl7jk4Q4QQUaYwLKfiG-11">
          <mxGeometry x="-0.1333" y="-5" relative="1" as="geometry">
            <mxPoint as="offset" />
          </mxGeometry>
        </mxCell>
        <mxCell id="GVl7jk4Q4QQUaYwLKfiG-17" style="edgeStyle=orthogonalEdgeStyle;rounded=0;orthogonalLoop=1;jettySize=auto;html=1;exitX=0.5;exitY=1;exitDx=0;exitDy=0;entryX=0.5;entryY=0;entryDx=0;entryDy=0;" parent="1" source="GVl7jk4Q4QQUaYwLKfiG-13" target="GVl7jk4Q4QQUaYwLKfiG-14" edge="1">
          <mxGeometry relative="1" as="geometry" />
        </mxCell>
        <mxCell id="GVl7jk4Q4QQUaYwLKfiG-13" value="Take info about the net from the topology.&lt;div&gt;Reserve IPs (default 10) on the mgt network and assign (on VIM) these list to the workers.&amp;nbsp;&lt;/div&gt;" style="rounded=1;whiteSpace=wrap;html=1;absoluteArcSize=1;arcSize=14;strokeWidth=2;" parent="1" vertex="1">
          <mxGeometry x="230" y="480" width="130" height="110" as="geometry" />
        </mxCell>
        <mxCell id="GVl7jk4Q4QQUaYwLKfiG-14" value="Assign reserved IPs to the load balancer pool of metalLB" style="rounded=1;whiteSpace=wrap;html=1;absoluteArcSize=1;arcSize=14;strokeWidth=2;" parent="1" vertex="1">
          <mxGeometry x="330" y="730" width="100" height="100" as="geometry" />
        </mxCell>
        <mxCell id="GVl7jk4Q4QQUaYwLKfiG-18" style="edgeStyle=orthogonalEdgeStyle;rounded=0;orthogonalLoop=1;jettySize=auto;html=1;exitX=0.5;exitY=1;exitDx=0;exitDy=0;entryX=0.5;entryY=0;entryDx=0;entryDy=0;" parent="1" source="GVl7jk4Q4QQUaYwLKfiG-15" target="GVl7jk4Q4QQUaYwLKfiG-14" edge="1">
          <mxGeometry relative="1" as="geometry" />
        </mxCell>
        <mxCell id="GVl7jk4Q4QQUaYwLKfiG-15" value="Take info about the net from the topology. Reserve (default 10) IPs and assign (on VIM) these list to the worker." style="rounded=1;whiteSpace=wrap;html=1;absoluteArcSize=1;arcSize=14;strokeWidth=2;" parent="1" vertex="1">
          <mxGeometry x="520" y="480" width="130" height="110" as="geometry" />
        </mxCell>
        <mxCell id="U0DpwGGxJAbAH8bx-Sdf-1" value="Legend" style="shape=table;startSize=30;container=1;collapsible=0;childLayout=tableLayout;fontSize=16;align=left;verticalAlign=top;fillColor=none;strokeColor=default;fontColor=#4D4D4D;fontStyle=1;spacingLeft=6;spacing=0;resizable=0;" parent="1" vertex="1">
          <mxGeometry x="60" y="230" width="180" height="60" as="geometry" />
        </mxCell>
        <mxCell id="U0DpwGGxJAbAH8bx-Sdf-2" value="" style="shape=tableRow;horizontal=0;startSize=0;swimlaneHead=0;swimlaneBody=0;strokeColor=inherit;top=0;left=0;bottom=0;right=0;collapsible=0;dropTarget=0;fillColor=none;points=[[0,0.5],[1,0.5]];portConstraint=eastwest;fontSize=12;" parent="U0DpwGGxJAbAH8bx-Sdf-1" vertex="1">
          <mxGeometry y="30" width="180" height="30" as="geometry" />
        </mxCell>
        <mxCell id="U0DpwGGxJAbAH8bx-Sdf-3" value="Default" style="shape=partialRectangle;html=1;whiteSpace=wrap;connectable=0;strokeColor=inherit;overflow=hidden;fillColor=#00CC00;top=0;left=0;bottom=0;right=0;pointerEvents=1;fontSize=12;align=left;fontColor=#FFFFFF;gradientColor=none;spacingLeft=10;spacingRight=4;" parent="U0DpwGGxJAbAH8bx-Sdf-2" vertex="1">
          <mxGeometry width="180" height="30" as="geometry">
            <mxRectangle width="180" height="30" as="alternateBounds" />
          </mxGeometry>
        </mxCell>
      </root>
    </mxGraphModel>
  </diagram>
  <diagram id="03BJLOOOoEnhMofo6mjY" name="K8S_creation">
    <mxGraphModel dx="1396" dy="2351" grid="1" gridSize="10" guides="1" tooltips="1" connect="1" arrows="1" fold="1" page="1" pageScale="1" pageWidth="827" pageHeight="1169" math="0" shadow="0">
      <root>
        <mxCell id="0" />
        <mxCell id="1" parent="0" />
        <mxCell id="pgoikxzI0dYl1QFEQvQl-1" style="edgeStyle=orthogonalEdgeStyle;rounded=0;orthogonalLoop=1;jettySize=auto;html=1;exitX=0.75;exitY=1;exitDx=0;exitDy=0;entryX=0.75;entryY=0;entryDx=0;entryDy=0;" edge="1" parent="1" source="pgoikxzI0dYl1QFEQvQl-5" target="pgoikxzI0dYl1QFEQvQl-13">
          <mxGeometry relative="1" as="geometry" />
        </mxCell>
        <mxCell id="pgoikxzI0dYl1QFEQvQl-2" value="4. Saving&lt;div&gt;in state&lt;/div&gt;" style="edgeLabel;html=1;align=center;verticalAlign=middle;resizable=0;points=[];fontStyle=1" vertex="1" connectable="0" parent="pgoikxzI0dYl1QFEQvQl-1">
          <mxGeometry x="0.1779" y="2" relative="1" as="geometry">
            <mxPoint x="25" y="-1" as="offset" />
          </mxGeometry>
        </mxCell>
        <mxCell id="pgoikxzI0dYl1QFEQvQl-3" style="edgeStyle=orthogonalEdgeStyle;rounded=0;orthogonalLoop=1;jettySize=auto;html=1;exitX=0.5;exitY=0;exitDx=0;exitDy=0;entryX=0;entryY=0.75;entryDx=0;entryDy=0;" edge="1" parent="1" source="pgoikxzI0dYl1QFEQvQl-16" target="pgoikxzI0dYl1QFEQvQl-7">
          <mxGeometry relative="1" as="geometry">
            <mxPoint x="410" y="-710" as="sourcePoint" />
            <mxPoint x="460" y="-640" as="targetPoint" />
          </mxGeometry>
        </mxCell>
        <mxCell id="pgoikxzI0dYl1QFEQvQl-4" value="1. Chart Install" style="edgeLabel;html=1;align=center;verticalAlign=middle;resizable=0;points=[];fontStyle=1;fontSize=13;" vertex="1" connectable="0" parent="pgoikxzI0dYl1QFEQvQl-3">
          <mxGeometry x="-0.0408" relative="1" as="geometry">
            <mxPoint y="11" as="offset" />
          </mxGeometry>
        </mxCell>
        <mxCell id="pgoikxzI0dYl1QFEQvQl-5" value="&lt;span&gt;K8S&lt;br&gt;Provider&lt;/span&gt;" style="rounded=1;whiteSpace=wrap;html=1;fillColor=#fad9d5;strokeColor=#ae4132;fontStyle=1" vertex="1" parent="1">
          <mxGeometry x="219" y="-876.75" width="131" height="116.75" as="geometry" />
        </mxCell>
        <mxCell id="pgoikxzI0dYl1QFEQvQl-6" value="K8S&lt;div&gt;API&lt;/div&gt;" style="rounded=1;whiteSpace=wrap;html=1;rotation=90;horizontal=0;fillColor=#ffff88;strokeColor=#36393d;fontStyle=1" vertex="1" parent="1">
          <mxGeometry x="325.75" y="-863" width="46" height="39" as="geometry" />
        </mxCell>
        <mxCell id="pgoikxzI0dYl1QFEQvQl-7" value="&lt;b&gt;&lt;font style=&quot;font-size: 19px;&quot;&gt;K8S Cluster&lt;/font&gt;&lt;/b&gt;" style="rounded=1;whiteSpace=wrap;html=1;verticalAlign=bottom;labelPosition=center;verticalLabelPosition=top;align=center;" vertex="1" parent="1">
          <mxGeometry x="469" y="-917" width="140" height="167.5" as="geometry" />
        </mxCell>
        <mxCell id="pgoikxzI0dYl1QFEQvQl-8" value="&lt;div&gt;Installed&lt;/div&gt;Chart" style="shape=cube;whiteSpace=wrap;html=1;boundedLbl=1;backgroundOutline=1;darkOpacity=0.05;darkOpacity2=0.1;fontStyle=1;fillColor=#cdeb8b;strokeColor=#36393d;" vertex="1" parent="1">
          <mxGeometry x="496" y="-861" width="86" height="56.75" as="geometry" />
        </mxCell>
        <mxCell id="pgoikxzI0dYl1QFEQvQl-9" style="edgeStyle=orthogonalEdgeStyle;rounded=0;orthogonalLoop=1;jettySize=auto;html=1;" edge="1" parent="1">
          <mxGeometry relative="1" as="geometry">
            <mxPoint x="370" y="-832" as="targetPoint" />
            <mxPoint x="469" y="-832" as="sourcePoint" />
          </mxGeometry>
        </mxCell>
        <mxCell id="pgoikxzI0dYl1QFEQvQl-10" value="3. Services Info" style="edgeLabel;html=1;align=center;verticalAlign=middle;resizable=0;points=[];fontStyle=1" vertex="1" connectable="0" parent="pgoikxzI0dYl1QFEQvQl-9">
          <mxGeometry x="0.1999" relative="1" as="geometry">
            <mxPoint x="4" y="11" as="offset" />
          </mxGeometry>
        </mxCell>
        <mxCell id="pgoikxzI0dYl1QFEQvQl-11" style="edgeStyle=orthogonalEdgeStyle;rounded=0;orthogonalLoop=1;jettySize=auto;html=1;exitX=0.25;exitY=0;exitDx=0;exitDy=0;entryX=0.25;entryY=1;entryDx=0;entryDy=0;" edge="1" parent="1" source="pgoikxzI0dYl1QFEQvQl-13" target="pgoikxzI0dYl1QFEQvQl-5">
          <mxGeometry relative="1" as="geometry" />
        </mxCell>
        <mxCell id="pgoikxzI0dYl1QFEQvQl-12" value="0. Install Helm Chart" style="edgeLabel;html=1;align=center;verticalAlign=middle;resizable=0;points=[];fontStyle=1" vertex="1" connectable="0" parent="pgoikxzI0dYl1QFEQvQl-11">
          <mxGeometry x="-0.355" relative="1" as="geometry">
            <mxPoint x="-58" y="-6" as="offset" />
          </mxGeometry>
        </mxCell>
        <mxCell id="pgoikxzI0dYl1QFEQvQl-13" value="Blueprint X" style="rounded=1;whiteSpace=wrap;html=1;fillColor=#3399FF;strokeColor=#36393d;fontStyle=1" vertex="1" parent="1">
          <mxGeometry x="218.5" y="-700" width="131" height="70" as="geometry" />
        </mxCell>
        <mxCell id="pgoikxzI0dYl1QFEQvQl-14" style="edgeStyle=orthogonalEdgeStyle;rounded=0;orthogonalLoop=1;jettySize=auto;html=1;exitX=0.25;exitY=0;exitDx=0;exitDy=0;entryX=-0.008;entryY=0.369;entryDx=0;entryDy=0;entryPerimeter=0;" edge="1" parent="1">
          <mxGeometry relative="1" as="geometry">
            <mxPoint x="368.25" y="-854" as="sourcePoint" />
            <mxPoint x="467.8799999999999" y="-854.1925" as="targetPoint" />
          </mxGeometry>
        </mxCell>
        <mxCell id="pgoikxzI0dYl1QFEQvQl-15" value="2. Get Services" style="edgeLabel;html=1;align=center;verticalAlign=middle;resizable=0;points=[];fontStyle=1" vertex="1" connectable="0" parent="pgoikxzI0dYl1QFEQvQl-14">
          <mxGeometry x="-0.6104" y="2" relative="1" as="geometry">
            <mxPoint x="26" y="-7" as="offset" />
          </mxGeometry>
        </mxCell>
        <mxCell id="pgoikxzI0dYl1QFEQvQl-16" value="HELM" style="rounded=1;whiteSpace=wrap;html=1;rotation=90;horizontal=0;fillColor=#ffff88;strokeColor=#36393d;fontStyle=1" vertex="1" parent="1">
          <mxGeometry x="326.69" y="-810.18" width="46" height="37.12" as="geometry" />
        </mxCell>
      </root>
    </mxGraphModel>
  </diagram>
  <diagram id="GPKMcP8LJXmGc9mQcWz5" name="K8S_configuration">
    <mxGraphModel dx="1396" dy="2351" grid="1" gridSize="10" guides="1" tooltips="1" connect="1" arrows="1" fold="1" page="1" pageScale="1" pageWidth="827" pageHeight="1169" math="0" shadow="0">
      <root>
        <mxCell id="0" />
        <mxCell id="1" parent="0" />
        <mxCell id="n_Cf7WWJqOeSNJdTg3bU-1" style="edgeStyle=orthogonalEdgeStyle;rounded=0;orthogonalLoop=1;jettySize=auto;html=1;exitX=0.75;exitY=1;exitDx=0;exitDy=0;entryX=0.75;entryY=0;entryDx=0;entryDy=0;" edge="1" parent="1" source="n_Cf7WWJqOeSNJdTg3bU-5" target="n_Cf7WWJqOeSNJdTg3bU-13">
          <mxGeometry relative="1" as="geometry" />
        </mxCell>
        <mxCell id="n_Cf7WWJqOeSNJdTg3bU-2" value="4. Saving&lt;div&gt;in state&lt;/div&gt;" style="edgeLabel;html=1;align=center;verticalAlign=middle;resizable=0;points=[];fontStyle=1" vertex="1" connectable="0" parent="n_Cf7WWJqOeSNJdTg3bU-1">
          <mxGeometry x="0.1779" y="2" relative="1" as="geometry">
            <mxPoint x="25" y="-1" as="offset" />
          </mxGeometry>
        </mxCell>
        <mxCell id="n_Cf7WWJqOeSNJdTg3bU-3" style="edgeStyle=orthogonalEdgeStyle;rounded=0;orthogonalLoop=1;jettySize=auto;html=1;exitX=0.5;exitY=0;exitDx=0;exitDy=0;entryX=0;entryY=0.75;entryDx=0;entryDy=0;" edge="1" parent="1" source="n_Cf7WWJqOeSNJdTg3bU-16" target="n_Cf7WWJqOeSNJdTg3bU-7">
          <mxGeometry relative="1" as="geometry">
            <mxPoint x="410" y="-710" as="sourcePoint" />
            <mxPoint x="460" y="-640" as="targetPoint" />
          </mxGeometry>
        </mxCell>
        <mxCell id="n_Cf7WWJqOeSNJdTg3bU-4" value="1. Chart upgrade" style="edgeLabel;html=1;align=center;verticalAlign=middle;resizable=0;points=[];fontStyle=1;fontSize=13;" vertex="1" connectable="0" parent="n_Cf7WWJqOeSNJdTg3bU-3">
          <mxGeometry x="-0.0408" relative="1" as="geometry">
            <mxPoint y="11" as="offset" />
          </mxGeometry>
        </mxCell>
        <mxCell id="n_Cf7WWJqOeSNJdTg3bU-5" value="&lt;span&gt;K8S&lt;br&gt;Provider&lt;/span&gt;" style="rounded=1;whiteSpace=wrap;html=1;fillColor=#fad9d5;strokeColor=#ae4132;fontStyle=1" vertex="1" parent="1">
          <mxGeometry x="219" y="-876.75" width="131" height="116.75" as="geometry" />
        </mxCell>
        <mxCell id="n_Cf7WWJqOeSNJdTg3bU-6" value="K8S&lt;div&gt;API&lt;/div&gt;" style="rounded=1;whiteSpace=wrap;html=1;rotation=90;horizontal=0;fillColor=#ffff88;strokeColor=#36393d;fontStyle=1" vertex="1" parent="1">
          <mxGeometry x="325.75" y="-863" width="46" height="39" as="geometry" />
        </mxCell>
        <mxCell id="n_Cf7WWJqOeSNJdTg3bU-7" value="&lt;b&gt;&lt;font style=&quot;font-size: 19px;&quot;&gt;K8S Cluster&lt;/font&gt;&lt;/b&gt;" style="rounded=1;whiteSpace=wrap;html=1;verticalAlign=bottom;labelPosition=center;verticalLabelPosition=top;align=center;" vertex="1" parent="1">
          <mxGeometry x="476" y="-917" width="140" height="167.5" as="geometry" />
        </mxCell>
        <mxCell id="n_Cf7WWJqOeSNJdTg3bU-8" value="&lt;div&gt;Installed&lt;/div&gt;Chart" style="shape=cube;whiteSpace=wrap;html=1;boundedLbl=1;backgroundOutline=1;darkOpacity=0.05;darkOpacity2=0.1;fontStyle=1;fillColor=#cdeb8b;strokeColor=#36393d;" vertex="1" parent="1">
          <mxGeometry x="496" y="-861" width="86" height="56.75" as="geometry" />
        </mxCell>
        <mxCell id="n_Cf7WWJqOeSNJdTg3bU-9" style="edgeStyle=orthogonalEdgeStyle;rounded=0;orthogonalLoop=1;jettySize=auto;html=1;" edge="1" parent="1">
          <mxGeometry relative="1" as="geometry">
            <mxPoint x="368" y="-832.72" as="targetPoint" />
            <mxPoint x="476" y="-832.72" as="sourcePoint" />
          </mxGeometry>
        </mxCell>
        <mxCell id="n_Cf7WWJqOeSNJdTg3bU-10" value="3. Services Info" style="edgeLabel;html=1;align=center;verticalAlign=middle;resizable=0;points=[];fontStyle=1" vertex="1" connectable="0" parent="n_Cf7WWJqOeSNJdTg3bU-9">
          <mxGeometry x="0.1999" relative="1" as="geometry">
            <mxPoint x="4" y="11" as="offset" />
          </mxGeometry>
        </mxCell>
        <mxCell id="n_Cf7WWJqOeSNJdTg3bU-11" style="edgeStyle=orthogonalEdgeStyle;rounded=0;orthogonalLoop=1;jettySize=auto;html=1;exitX=0.25;exitY=0;exitDx=0;exitDy=0;entryX=0.25;entryY=1;entryDx=0;entryDy=0;" edge="1" parent="1" source="n_Cf7WWJqOeSNJdTg3bU-13" target="n_Cf7WWJqOeSNJdTg3bU-5">
          <mxGeometry relative="1" as="geometry" />
        </mxCell>
        <mxCell id="n_Cf7WWJqOeSNJdTg3bU-12" value="0. Update Helm Chart" style="edgeLabel;html=1;align=center;verticalAlign=middle;resizable=0;points=[];fontStyle=1" vertex="1" connectable="0" parent="n_Cf7WWJqOeSNJdTg3bU-11">
          <mxGeometry x="-0.355" relative="1" as="geometry">
            <mxPoint x="-60" y="-6" as="offset" />
          </mxGeometry>
        </mxCell>
        <mxCell id="n_Cf7WWJqOeSNJdTg3bU-13" value="Blueprint X" style="rounded=1;whiteSpace=wrap;html=1;fillColor=#3399FF;strokeColor=#36393d;fontStyle=1" vertex="1" parent="1">
          <mxGeometry x="218.5" y="-700" width="131" height="70" as="geometry" />
        </mxCell>
        <mxCell id="n_Cf7WWJqOeSNJdTg3bU-14" style="edgeStyle=orthogonalEdgeStyle;rounded=0;orthogonalLoop=1;jettySize=auto;html=1;exitX=0.25;exitY=0;exitDx=0;exitDy=0;entryX=-0.008;entryY=0.369;entryDx=0;entryDy=0;entryPerimeter=0;" edge="1" parent="1">
          <mxGeometry relative="1" as="geometry">
            <mxPoint x="368.25" y="-854" as="sourcePoint" />
            <mxPoint x="476" y="-854.1925" as="targetPoint" />
          </mxGeometry>
        </mxCell>
        <mxCell id="n_Cf7WWJqOeSNJdTg3bU-15" value="2. Get Services" style="edgeLabel;html=1;align=center;verticalAlign=middle;resizable=0;points=[];fontStyle=1" vertex="1" connectable="0" parent="n_Cf7WWJqOeSNJdTg3bU-14">
          <mxGeometry x="-0.6104" y="2" relative="1" as="geometry">
            <mxPoint x="26" y="-7" as="offset" />
          </mxGeometry>
        </mxCell>
        <mxCell id="n_Cf7WWJqOeSNJdTg3bU-16" value="HELM" style="rounded=1;whiteSpace=wrap;html=1;rotation=90;horizontal=0;fillColor=#ffff88;strokeColor=#36393d;fontStyle=1" vertex="1" parent="1">
          <mxGeometry x="326.69" y="-810.18" width="46" height="37.12" as="geometry" />
        </mxCell>
      </root>
    </mxGraphModel>
  </diagram>
</mxfile>
